<svg xmlns="http://www.w3.org/2000/svg" xmlns:xlink="http://www.w3.org/1999/xlink" version="1.1" x="0px" y="0px" width="27px" height="27px" viewBox="0 0 1600 1600" style="enable-background:new 0 0 1600 1600;" xml:space="preserve">
<style xmlns="http://www.w3.org/2000/svg" type="text/css">
	.st0{fill:#706f6f;}
	.st1{fill:#3c3c3b;}
</style>
<g>
	
	<path class="st0" d="M1600,800c0-441.8-358.2-800-800-800S0,358.2,0,800c0,399.3,292.5,730.3,675,790.3v-559H471.9V800H675V623.8   c0-200.5,119.4-311.3,302.2-311.3c87.5,0,179.1,15.6,179.1,15.6V525h-100.9C956,525,925,586.7,925,649.9V800h221.9l-35.5,231.3H925   v559C1307.5,1530.3,1600,1199.3,1600,800"/>
	<path class="st1" d="M1146.9,800H925V649.9c0-63.3,31-124.9,130.4-124.9h100.9V328.1c0,0-91.6-15.6-179.1-15.6   C794.4,312.5,675,423.3,675,623.8V800H471.9v231.3H675v559c40.7,6.4,82.5,9.7,125,9.7s84.3-3.3,125-9.7v-559h186.4L1146.9,800z"/>
</g>
</svg>