<svg xmlns="http://www.w3.org/2000/svg" width="214" height="18" viewBox="0 0 214 18">
    <g fill="none" fill-rule="evenodd">
        <g fill="#FFF">
            <g>
                <path d="M180.552 9.296c0 .406-.1.842-.313 1.195-.33.546-.918 1.004-1.794 1.004-1.31 0-2.046-1.025-2.046-2.969 0-1.788.885-3.08 2.233-3.08.806 0 1.25.374 1.6.82.21.263.32.794.32 1.14v1.89zm-.486-9.095c-.262.027-.39.11-.39.259 0 .147.127.237.384.269.57.075.492.286.492 1.246v3.392c-.503-.504-1.19-.833-2.04-.833-2.41 0-4.067 1.766-4.067 4.348 0 2.248 1.568 3.932 3.707 3.932.525 0 .99-.116 1.387-.35.398-.234.736-.588 1.013-1.063v1.267l1.871-.157V0l-2.192.182-.165.02zm21.492 9.436c0 1.204-.802 1.944-1.764 1.997-.715.042-1.18-.341-1.18-.969 0-.772.39-1.072 1.61-1.58.704-.29 1.148-.516 1.334-.677v1.23zm-1.143-5.157c-.894 0-1.5.078-2.142.368-.687.313-1.128.807-1.128 1.457 0 .559.38.86.912.86.62 0 .995-.265 1.136-.87.125-.544.805-.859 1.285-.859.353 0 .588.106.787.314.42.432.333 1.162.1 1.542-.137.233-.31.41-.518.529-.206.119-.47.284-1.165.495-.818.253-1.409.47-1.765.654-.772.392-1.258.923-1.258 1.891 0 1.021.975 1.953 2.39 1.953 2.097 0 2.509-1.4 2.509-1.4 0 1.101.46 1.4 1.121 1.4.195 0 .465-.056.724-.126V7.085c0-1.752-1.112-2.605-2.988-2.605zm-84.882 7.257c-1.004 0-1.548-.438-1.834-.817-.218-.292-.282-.768-.282-1.081v-2.28c0-.314.09-.628.252-.828.339-.42 1.13-1.065 1.963-1.065 1.224 0 2.134 1.05 2.134 3.202 0 1.791-.948 2.869-2.233 2.869zm.524-7.182c-1.069 0-2 .453-2.64 1.153V4.48l-2.381.184-.183.02c-.284.025-.43.113-.43.257 0 .149.141.238.421.27.627.073.702.283.702 1.246v11.031c.348-.023.722-.034.934-.034.214 0 .588.01.937.034v-5.394c.349.215.705.378 1.075.485.367.109.746.162 1.143.162 2.416 0 4.085-1.846 4.085-4.12 0-2.251-1.436-4.066-3.663-4.066zM95.66 4.81c-.409-.201-.838-.303-1.293-.303-.565 0-1.214.149-1.683.449-.472.3-1.02.747-1.401 1.342V0l-2.162.182-.165.02c-.26.026-.39.11-.39.258 0 .147.126.237.382.269.567.075.49.286.49 1.246v10.686c.204-.028.45-.051.797-.051.315 0 .737.029 1.048.054V8.299c0-.493.106-.901.361-1.248.21-.28.471-.6.686-.766.43-.327 1.019-.492 1.465-.492.53 0 .884.193 1.058.58.173.385.262.77.262 2.089v4.211l.144-.014c.296-.04.718-.057.833-.057.513 0 .635.015.823.044v-4.4c0-1.23-.082-1.972-.305-2.438-.225-.466-.54-.798-.95-.998zm9.788 4.827c0 1.204-.799 1.944-1.76 1.997-.721.042-1.184-.341-1.184-.969 0-.772.39-1.072 1.611-1.58.702-.29 1.148-.516 1.333-.677v1.23zm-1.144-5.157c-.893 0-1.499.078-2.14.368-.685.313-1.127.807-1.127 1.457 0 .559.38.86.913.86.614 0 .995-.265 1.135-.87.122-.544.803-.859 1.284-.859.355 0 .588.106.79.314.416.432.329 1.162.098 1.542-.138.233-.312.41-.518.529-.207.119-.474.284-1.166.495-.82.253-1.408.47-1.765.654-.775.392-1.257.923-1.257 1.891 0 1.021.97 1.953 2.39 1.953 2.096 0 2.507-1.4 2.507-1.4 0 1.101.46 1.4 1.123 1.4.193 0 .465-.056.724-.126V7.085c0-1.752-1.112-2.605-2.991-2.605zm49.565 7.347c-1.56.073-2.504-1.114-2.696-3.188-.176-1.91.739-3.12 2.106-3.188 1.561-.071 2.503 1.116 2.693 3.188.178 1.913-.736 3.125-2.103 3.188zm-.294-7.318c-2.633.118-4.44 1.827-4.355 4.322.082 2.332 1.897 4.047 4.355 3.939 2.631-.116 4.437-1.826 4.351-4.322-.08-2.332-1.895-4.046-4.35-3.939zM169.455.471c-.241 0-.414-.015-.823-.042-.068-.005-.122-.009-.184-.011v12.274c.062-.004.116-.006.184-.012.409-.029.582-.041.823-.041.24 0 .41.012.822.04.067.007.124.009.184.013V.418c-.06.002-.117.006-.184.01-.412.028-.583.043-.822.043zm22.216 6.768c-.327.11-.609.094-1.718.094h-2.115c.155-1.078 1.111-1.919 2.181-1.919 1.101 0 1.967.68 1.967 1.39 0 .22-.105.365-.315.435zm-1.56-2.723c-2.473 0-4.273 1.874-4.273 4.42 0 2.086 1.391 3.86 4.014 3.86 1.198 0 2.225-.31 3.02-1.062.368-.352.553-.595.553-.731 0-.171-.08-.257-.239-.257-.062 0-.178.028-.35.124-.448.258-1.159.558-2.242.558-1.798 0-2.841-1.017-2.841-2.65 0-.08.003-.212.012-.39h5.191c.345 0 .673-.217.673-.517 0-1.925-1.482-3.355-3.518-3.355zm-43.19 6.895c-.055 0-.123.021-.202.063-.245.143-.644.247-1.231.247-.373 0-.79-.098-1.024-.264-.233-.167-.38-.372-.446-.616s-.1-.57-.1-1.148V5.414h2.382c.289 0 .502-.103.502-.388 0-.286-.246-.39-.502-.39h-2.383V2.484c0-.296-.071-.444-.212-.444-.115 0-.224.12-.282.276-.46 1.207-1.48 2.15-2.789 2.573-.19.062-.284.156-.284.258 0 .146.124.267.379.267h1.32v4.732c0 1.749.85 2.64 2.548 2.64.668 0 1.254-.153 1.757-.46.495-.307.744-.551.744-.73 0-.124-.056-.185-.177-.185zm-18.575-4.172c-.331.11-.611.094-1.716.094h-2.116c.153-1.078 1.113-1.919 2.18-1.919 1.1 0 1.967.68 1.967 1.39 0 .22-.105.365-.315.435zm-1.561-2.723c-2.473 0-4.272 1.874-4.272 4.42 0 2.086 1.39 3.86 4.012 3.86 1.2 0 2.228-.31 3.02-1.062.368-.352.554-.595.554-.731 0-.171-.08-.257-.24-.257-.06 0-.176.028-.346.124-.448.258-1.16.558-2.244.558-1.797 0-2.842-1.017-2.842-2.65 0-.08.005-.212.015-.39h5.188c.345 0 .672-.217.672-.517 0-1.925-1.478-3.355-3.517-3.355zm-45.452.513c-1.04-.36-2.007-.607-2.401-.93-.394-.323-.53-.67-.53-1.07 0-.503.212-.918.634-1.25.42-.335.949-.498 1.582-.498.654 0 1.342.196 1.951.586 1.141.73 1.382 1.448 1.625 1.702.056.06.145.09.268.09.166 0 .249-.085.249-.25l-.036-.306-.242-1.9c-1.093-.417-2.363-1-3.718-1-1.287 0-2.303.338-3.052 1.015-.747.678-1.12 1.298-1.12 2.328 0 1.03.668 1.962 1.673 2.625.508.333 1.282.684 2.323 1.048 1.071.375 1.99.766 2.424 1.172.432.407.649.724.649 1.265 0 .542-.235 1.025-.701 1.45-.47.427-1.082.639-1.846.639-.898 0-1.713-.28-2.354-.842-.647-.562-1.157-1.064-1.532-1.988-.123-.307-.253-.46-.388-.46-.186 0-.277.087-.277.266 0 .038.007.129.018.278l.204 2.552c.983.517 2.628 1.274 4.385 1.274 2.804 0 4.432-2.046 4.432-3.954 0-1.445-.856-2.683-4.22-3.842zM19.339.371c-.328 0-.606.115-.834.345-.23.23-.344.507-.344.836 0 .323.114.6.344.833.228.231.506.347.834.347.322 0 .599-.116.83-.347.232-.234.349-.51.349-.833 0-.329-.117-.606-.348-.836-.232-.23-.509-.345-.831-.345zm11.677 4.365c-.748 1.95-1.759 4.307-2.178 5.23-.443-.82-1.607-3.084-2.632-5.247-.017.002-.03.002-.048.005-.193.016-.242.024-.394.024-.38 0-.675-.022-1.087-.068-.174-.017-.301-.024-.382-.024l-.018.001 3.05 6.08c.561 1.12.877 1.74.953 1.856.077.118.191.174.31.174.153 0 .22-.143.487-.742.215-.482 2.235-5.306 3.08-7.318-.261.028-.73.041-.91.041-.055 0-.133-.003-.231-.012zm5.618-.052c-.264.025-.396.113-.396.257 0 .149.13.238.388.27.447.057.52.216.52 1.246v6.202c.27-.027.562-.057.923-.057.363 0 .653.03.923.057v-8.18l-2.191.185-.167.02zm-24.228-2.05l-.128-1.295S10.078.222 7.034.222c-2.125 0-3.98.645-5.202 1.934C.61 3.448 0 4.979 0 6.752c0 1.258.304 2.342.913 3.249.61.909 1.412 1.612 2.41 2.111.997.5 2.128.75 3.397.75.75 0 1.506-.092 2.266-.274.76-.181 1.5-.459 2.215-.831.717-.373 1.081-.582 1.094-.627.013-.047.025-.262.037-.643.05-1.707.138-3.701.138-3.701l-2.227.06H8.846c-.214 0-.322.088-.322.268 0 .154.113.243.343.267.883.102 1.151.247 1.36.781.097.255.15.7.15 1.653 0 .926-1.27 2.038-3.343 2.038-2.337 0-4.49-2.137-4.49-5.362 0-3.501 2.274-5.215 4.562-5.215 2.525 0 3.979 1.257 4.823 3.001.103.214.233.322.385.322.168 0 .249-.096.249-.286 0-.074-.006-.172-.018-.296l-.139-1.383zm5.498 2.05c-.265.025-.396.113-.396.257 0 .149.129.238.388.27.447.057.519.216.519 1.246v6.202c.271-.027.562-.057.924-.057s.652.03.924.057v-8.18l-2.193.185-.166.02zm193.24 3.128c-1.687-.722-2.064-.898-2.064-1.546 0-.485.468-.886 1.154-.886 1.024 0 1.869.227 2.393 1.372.152.347.304.52.45.52.144 0 .213-.122.213-.363 0-.344-.025-.778-.083-1.297-.012-.101-.018-.186-.03-.27-.648-.366-1.606-.844-2.822-.844-1.557 0-2.72 1.02-2.72 2.099 0 1.16.55 1.663 2.643 2.654.891.423 1.731.679 1.731 1.547 0 .8-.668 1.063-1.328 1.063-1.07 0-1.968-.337-2.56-1.726-.165-.38-.324-.574-.47-.574-.148 0-.222.13-.222.39 0 .669.008 1.246.032 1.735 0 .036.003.063.006.099.62.394 1.784.982 3.202.982 1.828 0 2.914-1.254 2.914-2.374 0-1.095-.64-1.812-2.44-2.58zM49.584 4.507c-1.334 0-2.691 1.008-3.276 1.79V4.48l-2.192.184-.166.02c-.264.025-.396.113-.396.257 0 .149.129.238.388.27.447.057.52.216.52 1.246v6.202c.27-.027.561-.057.923-.057s.652.03.923.057v-4.48c0-.342.114-.654.27-.871.37-.52 1.168-1.521 2.261-1.521.944 0 1.3.477 1.3 2.144v4.747c.296-.028.529-.076.955-.076.4 0 .643.043.892.07v-5.53c0-1.565-.844-2.635-2.402-2.635zM38.069.371c-.329 0-.605.115-.834.345-.229.23-.344.507-.344.836 0 .323.115.6.344.833.229.231.505.347.834.347.322 0 .6-.116.832-.347.23-.234.349-.51.349-.833 0-.329-.118-.606-.35-.836-.231-.23-.509-.345-.83-.345zm21.383 9.061c-.866 0-1.734-.725-1.734-2.152 0-1.186.551-1.958 1.452-1.958.867 0 1.641.781 1.641 2.182 0 1.189-.49 1.928-1.36 1.928zm.531 3.947c1.773 0 2.812.515 2.812 1.323 0 .907-1.364 1.842-3.45 1.842-1.468 0-2.572-.532-2.572-1.388 0-.968 1.258-1.777 3.21-1.777zm3.828-9.011c-.541 0-1.176.32-1.901.962-.589-.566-1.38-.86-2.401-.86-1.95 0-3.71 1.049-3.71 3.046 0 1.176.64 1.988 1.581 2.405-.7.276-1.344.768-1.344 1.514 0 .738.53 1.317 1.409 1.593-1.449.516-2.237 1.342-2.237 2.336 0 1.009.833 2.246 3.729 2.246 2.939 0 5.217-1.27 5.217-3.427 0-1.182-1.198-2.111-3.472-2.117-2.57-.006-3.223-.239-3.223-.758 0-.522.381-.852 1.561-.96.867-.08 1.538-.22 2.007-.427C62.076 9.47 62.73 8.576 62.73 7.3c0-.51-.14-.988-.403-1.437.175-.095.38-.198.559-.266.348-.138.86-.238 1.401-.238.46 0 .444-.034.444-.462 0-.525-.02-.528-.921-.528z" transform="translate(-1096 -316) translate(1096 316)"/>
            </g>
        </g>
    </g>
</svg>
