<svg xmlns="http://www.w3.org/2000/svg" width="27px" height="27px" viewBox="0 0 24 24" style="&#10;    fill: #706f6f;&#10;"><title>sm_linkedIn-small</title><g id="sm-linkIn" style="&#10;"><path xmlns="http://www.w3.org/2000/svg" d="M7,10H9v7H7Z" fill="#706f6f"/><path xmlns="http://www.w3.org/2000/svg" d="M14.83,10h0A4.09,4.09,0,0,0,12,11.37V10H10v7h2V13.15s2.27-2.94,3-1.15v5h2V12.37A2.13,2.13,0,0,0,14.83,10Z" fill="#706f6f"/><path xmlns="http://www.w3.org/2000/svg" d="M8.11,6.84A1.14,1.14,0,1,1,7,8,1.14,1.14,0,0,1,8.11,6.84Z" fill="#706f6f"/><path xmlns="http://www.w3.org/2000/svg" d="M12,3a9,9,0,1,1-9,9,9,9,0,0,1,9-9m0-3A12,12,0,1,0,24,12,12,12,0,0,0,12,0Z" fill="#706f6f"/></g></svg>