<svg xmlns="http://www.w3.org/2000/svg" width="32px" height="32px" viewBox="0 0 14.76 9.61"><defs><style xmlns="http://www.w3.org/2000/svg">.cls-1{fill:#706f6f;}</style></defs><title>Asset 1</title><g id="Layer_2" data-name="Layer 2"><g id="Layer_1-2" data-name="Layer 1"><g id="sm_youtube-large" data-name="sm youtube-large"><path class="cls-1" d="M14.1.92c-.39-.67-.83-.8-1.71-.84S9.3,0,7.39,0s-4.13,0-5,.08S1.08.25.67.92A8.1,8.1,0,0,0,0,4.81H0A7.91,7.91,0,0,0,.65,8.68c.41.68.84.8,1.72.86s3.09.07,5,.07,4.13,0,5-.07,1.32-.18,1.72-.86a7.81,7.81,0,0,0,.64-3.87h0A8,8,0,0,0,14.1.92ZM5.54,7.44V2.18l4.6,2.63Z"/></g></g></g></svg>